# xmcd CD database file
#
# Track frame offsets:
#	150
#	17710
#	29722
#	47305
#	64735
#	81480
#	108295
#	135383
#	145964
#	160119
#	173509
#	189201
#	201142
#	226489
#	247061
#	263470
#
# Disc length: 3786 seconds
#
# Revision: 0
# Processed by: cddbd v1.5.1PL0 Copyright (c) Steve Scherf et al.
# Submitted via: CDex 1.51
#
DISCID=cf0ec810
DTITLE=The Rosenberg Trio feat Stephane Grappelli - Caravan (1994)
DYEAR=1994
DGENRE=Jazz
TTITLE0=The Rosenberg Trio feat. Stephane Grappelli - Viajeiro 
TTITLE1=The Rosenberg Trio feat. Stephane Grappelli - Melodie Au Crepuscule
TTITLE2=The Rosenberg Trio feat. Stephane Grappelli - Pent-up house 
TTITLE3=The Rosenberg Trio feat. Stephane Grappelli - La Promenade 
TTITLE4=The Rosenberg Trio feat. Stephane Grappelli - Embraceable you 
TTITLE5=The Rosenberg Trio feat. Stephane Grappelli - Tears 
TTITLE6=The Rosenberg Trio feat. Stephane Grappelli - The Zebra 
TTITLE7=The Rosenberg Trio feat. Stephane Grappelli - Chez moi
TTITLE8=The Rosenberg Trio feat. Stephane Grappelli - Stephanesque 
TTITLE9=The Rosenberg Trio feat. Stephane Grappelli - Caravan
TTITLE10=The Rosenberg Trio feat. Stephane Grappelli - I surrender day
TTITLE11=The Rosenberg Trio feat. Stephane Grappelli - Donna Lee
TTITLE12=The Rosenberg Trio feat. Stephane Grappelli - Night a day
TTITLE13=The Rosenberg Trio feat. Stephane Grappelli - Manoir De mes Reves
TTITLE14=The Rosenberg Trio feat. Stephane Grappelli - Batida Diferente
TTITLE15=The Rosenberg Trio feat. Stephane Grappelli - Manha De Carnerval
EXTD=YEAR: 1994
EXTT0=
EXTT1=
EXTT2=
EXTT3=
EXTT4=
EXTT5=
EXTT6=
EXTT7=
EXTT8=
EXTT9=
EXTT10=
EXTT11=
EXTT12=
EXTT13=
EXTT14=
EXTT15=
PLAYORDER=
